<svg xmlns="http://www.w3.org/2000/svg" class="icon icon-tabler icon-tabler-mail-filled" width="24" height="24" stroke-width="2" stroke="currentColor" fill="none" stroke-linecap="round" stroke-linejoin="round"><path d="M0 0h24v24H0z" stroke="none"/><path d="M22 7.54V17a3 3 0 0 1-2.82 3H5a3 3 0 0 1-3-2.82V7.54l9.45 6.3.11.06a1 1 0 0 0 .88 0l.12-.07L22 7.53z" fill="currentColor" stroke="none"/><path d="M19 4a3 3 0 0 1 2.56 1.43L12 11.8 2.45 5.43A3 3 0 0 1 4.8 4H19z" fill="currentColor" stroke="none"/></svg>
