<svg clip-rule="evenodd" fill-rule="evenodd" stroke-linejoin="round" stroke-miterlimit="2" viewBox="0 0 32 32" xmlns="http://www.w3.org/2000/svg"><clipPath id="a"><path d="M0 0h32v32H0z"/></clipPath><clipPath id="b"><path d="M12.97 15 13 4.5s.03-.33.08-.5a1.51 1.51 0 0 1 1.34-1h.16c.17.02.34.05.5.11a1.51 1.51 0 0 1 .92 1.3V14h1.4l2.13-8.36s.09-.27.16-.4a1.5 1.5 0 0 1 1.98-.58c.43.22.73.64.8 1.12.03.17 0 .5 0 .5L20 16.22v3.22a1 1 0 0 0 1.73.68l1.4-1.5A4.07 4.07 0 0 1 29 18.5c.78.79-6.04 6.04-9.36 9.36A7.3 7.3 0 0 1 14.48 30h-.46A9.03 9.03 0 0 1 5 20.98V18.9c-1-2.97-1.93-5.96-2.92-8.93A1.51 1.51 0 0 1 3.44 8h.17l.33.06c.3.1.56.28.75.52.08.11.2.37.2.37L7.3 16h1.6L6.54 6.36s-.05-.33-.03-.5a1.51 1.51 0 0 1 1.37-1.35h.17c.14 0 .28.02.42.06a1.46 1.46 0 0 1 .96.99L11.81 15h1.16z"/></clipPath><path d="M0 0h32v32H0z" fill="none"/><g clip-path="url(#a)"><path d="m11.01 4.22.01-.1A3.5 3.5 0 0 1 14.44 1h.25a4.53 4.53 0 0 1 1.01.21A3.52 3.52 0 0 1 18 4.2a3.53 3.53 0 0 1 2.89-1.7h.25l.4.04a3.49 3.49 0 0 1 2.88 4.18c-.75 3.26-1.6 6.5-2.42 9.74v.45l.1-.08a6.1 6.1 0 0 1 4.06-1.52h.3a6.1 6.1 0 0 1 3.93 1.75l1.46 1.41-2.94 2.94c-2.64 2.65-5.28 5.32-7.94 7.95l-.25.24a9.55 9.55 0 0 1-4.2 2.17 9.55 9.55 0 0 1-2.63.23A11.01 11.01 0 0 1 3 21.1v-1.92c-.96-2.86-1.87-5.72-2.82-8.57a3.45 3.45 0 0 1 .07-2.4A3.53 3.53 0 0 1 3.35 6h.25c.3 0 .6.05.9.13A3.53 3.53 0 0 1 6.6 2.8a3.5 3.5 0 0 1 1.25-.29h.26a3.52 3.52 0 0 1 2.82 1.59l.08.13z"/><path d="M12.97 15 13 4.5s.03-.33.08-.5a1.51 1.51 0 0 1 1.34-1h.16c.17.02.34.05.5.11a1.51 1.51 0 0 1 .92 1.3V14h1.4l2.13-8.36s.09-.27.16-.4a1.5 1.5 0 0 1 1.98-.58c.43.22.73.64.8 1.12.03.17 0 .5 0 .5L20 16.22v3.22a1 1 0 0 0 1.73.68l1.4-1.5A4.07 4.07 0 0 1 29 18.5c.78.79-6.04 6.04-9.36 9.36A7.3 7.3 0 0 1 14.48 30h-.46A9.03 9.03 0 0 1 5 20.98V18.9c-1-2.97-1.93-5.96-2.92-8.93A1.51 1.51 0 0 1 3.44 8h.17l.33.06c.3.1.56.28.75.52.08.11.2.37.2.37L7.3 16h1.6L6.54 6.36s-.05-.33-.03-.5a1.51 1.51 0 0 1 1.37-1.35h.17c.14 0 .28.02.42.06a1.46 1.46 0 0 1 .96.99L11.81 15h1.16z" fill="#ffc20b"/><g clip-path="url(#b)"><path d="M24.05 15a.99.99 0 0 1 .68.32 1 1 0 0 1-.02 1.39l-6.2 6.2-.76-.75-.14-.12a2.55 2.55 0 0 0-3.35.12c-.7.68-1.37 1.37-2.05 2.05a1 1 0 0 1-1.46-1.36c.66-.71 1.36-1.38 2.05-2.06a4.56 4.56 0 0 1 5.62-.62l4.87-4.88c.05-.04.1-.09.17-.13.14-.09.29-.14.45-.16h.14z" fill="#ce8d15" fill-rule="nonzero"/></g></g></svg>